<svg xmlns="http://www.w3.org/2000/svg" viewBox="0 0 326.37 60.19">
  <defs>
    <style>
      .cls-1{fill:#000}
    </style>
  </defs>
  <g id="Layer_2" data-name="Layer 2">
    <g id="Layer_1-2" data-name="Layer 1">
      <path d="M123.38 16.66C119.29 14 115.51 14 112.18 14H95.85v32.85H109c4.87 0 10.93 0 15.56-3.91a16.64 16.64 0 0 0 5.54-12.74c.04-5.87-2.36-10.68-6.72-13.54zM121 39.24c-3.13 2.77-6.7 3-10.39 3h-9.44V18.53h11A20.18 20.18 0 0 1 117 19c4.71 1.25 7.67 5.49 7.72 11.05.04 2.17-.45 6.3-3.72 9.19zM162.15 43.24c-1.75 0-2.13-.54-2.13-3v-8.9c0-1.7 0-3.31-1.16-4.86a7.3 7.3 0 0 0-4.44-2.55 30.65 30.65 0 0 0-6.41-.69c-7.85 0-10.16 1.93-11.31 3.62a9.89 9.89 0 0 0-1 2.3l-.11.42 5.08.48.1-.26c.91-2.21 4.59-2.68 7.52-2.68 7 0 7 2.31 7 5v.17h-5.94c-5.17 0-8.73.08-11 1.08a6.69 6.69 0 0 0-4.14 6.3c0 1.88.78 8 10.79 8 5.83 0 9.07-2.06 10.45-3.72.28 1.45 1.12 3.13 4.5 3.13 1 0 2-.08 2.89-.16l1.31-.1v-3.77l-.42.05c-.35.04-1.26.14-1.58.14zm-14.64-6.89h7.75a7.09 7.09 0 0 1-.76 3.08c-2 3.76-7.12 4.17-9.21 4.17-4.17 0-6-2-6-4-.04-3.25 3.97-3.25 8.22-3.25zM173.56 16.24h-5v7.68h-3.87v3.7h3.78v12.72c0 2.9.2 4.14 1.38 5.31 1.39 1.35 3.47 1.52 5.13 1.52a33.49 33.49 0 0 0 4.36-.32l.33-.05v-4.56h-.42l-.42.07a18.54 18.54 0 0 1-2.67.25c-2.38 0-2.72-.74-2.72-3.49V27.62h6.32v-3.7h-6.18zM210.82 43.24c-1.75 0-2.13-.54-2.13-3v-8.9c0-1.7 0-3.31-1.16-4.86a7.36 7.36 0 0 0-4.44-2.55 30.77 30.77 0 0 0-6.41-.69c-7.85 0-10.17 1.93-11.31 3.62a9.08 9.08 0 0 0-1.05 2.3l-.11.42 5.07.48.11-.26c.91-2.21 4.59-2.68 7.52-2.68 7 0 7 2.31 7 5v.17h-6c-5.17 0-8.72.08-11 1.08a6.69 6.69 0 0 0-4.14 6.3c0 1.88.78 8 10.78 8 5.84 0 9.08-2.06 10.45-3.72.29 1.45 1.13 3.13 4.51 3.13 1 0 1.94-.08 2.89-.16l1.3-.1v-3.77l-.42.05c-.28.04-1.15.14-1.46.14zm-14.64-6.89h7.74a6.91 6.91 0 0 1-.75 3.08c-2 3.76-7.13 4.17-9.22 4.17-4.17 0-6-2-6-4-.03-3.25 3.98-3.25 8.23-3.25zM224.41 13.74c-4.67 0-6.33 2.39-6.91 4.41a13.94 13.94 0 0 0-.38 3.37v2.4h-3.63v3.66h3.59v19.27h5V27.62h6.09v-3.7h-6.07v-2.85c0-2.48 1.56-2.81 3.08-2.81a10.19 10.19 0 0 1 2.56.39l.49.16.06-4.7h-.32a21.58 21.58 0 0 0-3.56-.37zM253.71 36a6 6 0 0 1-.63 3.35c-.81 1.37-3.47 3.68-8.27 3.68-1.34 0-5.82-.24-7.15-3.35a10.83 10.83 0 0 1-.56-4.22V23.92h-5v12c0 2 0 4.36 1 6.3 2.46 5.13 9.91 5.39 11.38 5.39a15.45 15.45 0 0 0 7.66-1.92 16.15 16.15 0 0 0 1.74-1.23v2.38h5V23.92h-5.07zM280.54 23.28a17.5 17.5 0 0 0-6.69 1.21 10.73 10.73 0 0 0-2.85 1.69v-2.26h-5.06v22.93H271V35.93a10 10 0 0 1 .52-3.77c1.61-4 6.3-4.45 8.25-4.45 5.21 0 6.83 2.48 7.29 3.56a7.47 7.47 0 0 1 .56 3.48v12.1h5V34.48a13.29 13.29 0 0 0-.76-5.43c-1.54-3.56-5.86-5.77-11.32-5.77zM321.3 14v12.14a16.8 16.8 0 0 0-9.44-2.77 15.1 15.1 0 0 0-10 3.46 11.08 11.08 0 0 0-3.72 8.37 11.64 11.64 0 0 0 4.75 9.44 14.44 14.44 0 0 0 8.81 2.62 15 15 0 0 0 9.58-2.93v2.52h5.07V14zm-9 29c-5.37 0-8.85-2.9-8.85-7.39 0-4.78 3.51-8 8.72-8 3.86 0 6.07 1.26 7.25 2.31a6.69 6.69 0 0 1 2.15 5.27c-.04 7.01-6.52 7.81-9.31 7.81zM17.47 29.83c0 4.66 3.41 8.68 8.26 9.92V19.91c-4.85 1.25-8.26 5.26-8.26 9.92zM31.93 19.91v19.84c4.85-1.24 8.26-5.26 8.26-9.92s-3.41-8.67-8.26-9.92z" class="cls-1"/>
      <path d="M26 0H0v60.19h26c20.67 0 34-11.79 34-30C60 11.55 46.93 0 26 0zm6 46.08v5.29h-6.2v-5.29c-8.31-1.4-14.46-8.24-14.46-16.25S17.42 15 25.73 13.58V8.66h6.2v4.92c8.3 1.4 14.46 8.24 14.46 16.25s-6.16 14.85-14.46 16.25z" class="cls-1"/>
    </g>
  </g>
</svg>
